#!OML:ASF I:\Actors\actors\Patient Classification 2\Patient 1\Session 1\actor1.ASF
:FULLY-SPECIFIED
:DEGREES
443
root -0.763331 18.5712 6.84811 2.34141 -0.102112 -6.48167
lowerback 4.80584 1.05645 1.09862
upperback -2.82886 1.51573 0.437798
thorax -5.61462 0.717153 -0.30693
lowerneck -10.8292 -3.76163 -1.99567
upperneck 10.7348 -5.55633 6.13739
head 5.2403 -2.38926 1.80627
rclavicle -2.42393e-014 -7.95139e-016
rhumerus -38.0055 8.60582 -91.2601
rradius 121.278
rwrist 18.8894
rhand 13.9043 -49.4184
rfingers 7.12502
rthumb 38.8193 -434.99
lclavicle -2.42393e-014 -7.95139e-016
lhumerus -29.6753 -19.9014 98.8904
lradius 120.888
lwrist -23.1347
lhand 43.0679 -0.78927
lfingers 7.12502
lthumb 64.8843 6.579
rfemur 9.83657 -0.266261 20.533
rtibia 2.06736e-014
rfoot -17.9007 -10.4927
rtoes -15.015
lfemur -6.00324 -4.42765 -7.39777
ltibia 27.8244
lfoot -24.1446 8.87295
ltoes -58.4129
444
root -0.758117 18.5707 6.85441 2.30001 -0.0628896 -6.456
lowerback 4.81649 1.07265 1.16376
upperback -2.84345 1.54529 0.490808
thorax -5.63557 0.73021 -0.291635
lowerneck -10.868 -3.79329 -1.95617
upperneck 10.7518 -5.58214 5.9565
head 5.24649 -2.41134 1.74073
rclavicle -4.89507e-015 -7.95139e-015
rhumerus -37.5822 9.31264 -90.9775
rradius 120.774
rwrist 18.2854
rhand 13.5624 -49.8832
rfingers 7.12502
rthumb 38.4968 -435.546
lclavicle -4.89507e-015 -7.95139e-015
lhumerus -29.7048 -19.873 98.9069
lradius 120.847
lwrist -23.0341
lhand 42.9022 -0.764911
lfingers 7.12502
lthumb 64.7529 6.81812
rfemur 9.91267 -0.302964 20.4924
rtibia 2.38542e-014
rfoot -17.9079 -10.5028
rtoes -14.8497
lfemur -5.98165 -4.3711 -7.43428
ltibia 27.865
lfoot -24.1447 8.77993
ltoes -58.3114
445
root -0.75458 18.5699 6.86162 2.27646 -0.0546622 -6.42512
lowerback 4.83768 1.10328 1.20931
upperback -2.88269 1.59277 0.533658
thorax -5.68844 0.752354 -0.278153
lowerneck -10.8924 -3.80785 -1.92888
upperneck 10.8113 -5.58881 5.80213
head 5.26379 -2.42228 1.68701
rclavicle -5.90142e-015 1.35174e-014
rhumerus -37.5035 9.80697 -90.7825
rradius 120.751
rwrist 17.9089
rhand 13.8988 -50.5611
rfingers 7.12502
rthumb 38.8141 -436.134
lclavicle -5.90142e-015 1.35174e-014
lhumerus -29.7066 -19.8624 98.9292
lradius 120.833
lwrist -22.9829
lhand 42.8723 -0.67928
lfingers 7.12502
lthumb 64.7292 6.94214
rfemur 9.96765 -0.309251 20.4507
rtibia -1.27222e-014
rfoot -17.9307 -10.5257
rtoes -14.7837
lfemur -5.95323 -4.31495 -7.47398
ltibia 27.8758
lfoot -24.1465 8.70087
ltoes -58.1771
446
root -0.751879 18.5695 6.87007 2.22138 -0.0268688 -6.39837
lowerback 4.66829 1.10359 1.16272
upperback -2.77623 1.59059 0.634443
thorax -5.48395 0.756924 -0.142382
lowerneck -10.9271 -3.78386 -2.00762
upperneck 10.7852 -5.5366 5.76412
head 5.2603 -2.40238 1.69174
rclavicle 2.48481e-016 9.54166e-015
rhumerus -37.4567 10.0928 -90.7224
rradius 120.807
rwrist 17.7388
rhand 14.4513 -50.827
rfingers 7.12502
rthumb 39.3349 -436.25
lclavicle 2.48481e-016 9.54166e-015
lhumerus -29.4581 -19.7515 98.9296
lradius 120.843
lwrist -23.0398
lhand 43.1345 -0.591936
lfingers 7.12502
lthumb 64.937 6.68939
rfemur 10.0657 -0.335584 20.4177
rtibia -1.11319e-014
rfoot -17.9198 -10.5694
rtoes -14.9195
lfemur -5.87272 -4.31169 -7.51725
ltibia 27.8634
lfoot -24.1414 8.70255
ltoes -58.1794
447
root -0.749312 18.5702 6.87752 2.16742 0.0295849 -6.332
lowerback 4.23652 1.05255 0.89964
upperback -2.46832 1.50277 0.834573
thorax -4.92836 0.730381 0.232187
lowerneck -11.0555 -3.76095 -2.21828
upperneck 10.6693 -5.46762 5.79509
head 5.24943 -2.37489 1.73957
rclavicle -3.23646e-015 0
rhumerus -37.1341 10.4213 -90.6472
rradius 120.766
rwrist 17.6944
rhand 14.3987 -50.6625
rfingers 7.12502
rthumb 39.2853 -436.1
lclavicle -3.23646e-015 0
lhumerus -28.8449 -19.4551 98.8899
lradius 120.811
lwrist -23.1379
lhand 43.3555 -0.505747
lfingers 7.12502
lthumb 65.1115 6.48447
rfemur 10.1648 -0.391491 20.3416
rtibia -4.77083e-015
rfoot -17.8933 -10.6077
rtoes -15.1072
lfemur -5.80105 -4.33026 -7.60256
ltibia 27.8471
lfoot -24.1294 8.69968
ltoes -58.2064
448
root -0.746571 18.5713 6.88407 2.13488 0.0573432 -6.24545
lowerback 4.32542 1.05272 0.97598
upperback -2.51269 1.5067 0.765109
thorax -5.02146 0.727938 0.115023
lowerneck -11.0279 -3.93506 -2.49784
upperneck 10.8199 -5.7085 6.10558
head 5.31911 -2.48066 1.8612
rclavicle -7.3923e-015 4.77083e-015
rhumerus -37.4265 10.1307 -91.0069
rradius 120.735
rwrist 17.8521
rhand 14.1661 -50.2785
rfingers 7.12502
rthumb 39.0661 -435.78
lclavicle -7.3923e-015 4.77083e-015
lhumerus -28.807 -19.4266 98.7664
lradius 120.772
lwrist -23.1828
lhand 43.3067 -0.452412
lfingers 7.12502
lthumb 65.073 6.60238
rfemur 10.2273 -0.418661 20.2397
rtibia 1.11319e-014
rfoot -17.8959 -10.6081
rtoes -15.0483
lfemur -5.75243 -4.31634 -7.71127
ltibia 27.8415
lfoot -24.1336 8.64138
ltoes -58.1043
449
root -0.744736 18.5724 6.89154 2.11238 0.073258 -6.17482
lowerback 4.70615 1.12813 1.19833
upperback -2.76294 1.62454 0.598392
thorax -5.4893 0.771635 -0.203524
lowerneck -10.835 -4.44182 -3.03319
upperneck 11.0031 -6.39256 6.61546
head 5.40871 -2.80247 2.0513
rclavicle -3.00662e-015 1.19271e-014
rhumerus -38.2815 8.98592 -91.6314
rradius 120.746
rwrist 18.3557
rhand 14.1398 -49.6549
rfingers 7.12502
rthumb 39.0414 -435.163
lclavicle -3.00662e-015 1.19271e-014
lhumerus -29.1511 -19.647 98.7643
lradius 120.72
lwrist -23.1985
lhand 43.0902 -0.566035
lfingers 7.12502
lthumb 64.902 6.7732
rfemur 10.2713 -0.433992 20.1604
rtibia 2.06736e-014
rfoot -17.9163 -10.604
rtoes -14.8787
lfemur -5.71058 -4.26917 -7.7982
ltibia 27.8516
lfoot -24.1405 8.51903
ltoes -57.8939
450
root -0.744768 18.5742 6.89885 2.11512 0.0957332 -6.09573
lowerback 4.86564 1.15587 1.2699
upperback -2.84339 1.66573 0.500665
thorax -5.6596 0.785715 -0.353465
lowerneck -10.6982 -5.21544 -3.82972
upperneck 10.9423 -7.39992 7.23288
head 5.47102 -3.28909 2.28747
rclavicle 1.34925e-014 7.95139e-015
rhumerus -37.8935 9.73435 -91.2197
rradius 120.535
rwrist 17.8903
rhand 13.6719 -50.3407
rfingers 7.12502
rthumb 38.6001 -435.974
lclavicle 1.34925e-014 7.95139e-015
lhumerus -29.2028 -19.7422 98.6766
lradius 120.711
lwrist -23.1974
lhand 42.9644 -0.676699
lfingers 7.12502
lthumb 64.8023 6.82596
rfemur 10.2908 -0.457152 20.0826
rtibia 0
rfoot -17.9173 -10.6406
rtoes -14.869
lfemur -5.71189 -4.18213 -7.88642
ltibia 27.8793
lfoot -24.0751 8.46996
ltoes -57.8541
451
root -0.743928 18.5759 6.90532 2.11018 0.135544 -6.03806
lowerback 4.9005 1.15356 1.25483
upperback -2.81882 1.66141 0.49337
thorax -5.65398 0.784103 -0.352682
lowerneck -10.2981 -6.35716 -4.89836
upperneck 10.5052 -8.8513 7.85013
head 5.42707 -4.01703 2.53285
rclavicle 1.21631e-014 1.66979e-014
rhumerus -37.507 10.0336 -90.8898
rradius 120.302
rwrist 17.5991
rhand 13.4604 -50.5559
rfingers 7.12502
rthumb 38.4005 -436.245
lclavicle 1.21631e-014 1.66979e-014
lhumerus -29.0629 -19.7047 98.6276
lradius 120.777
lwrist -23.231
lhand 43.0881 -0.65342
lfingers 7.12502
lthumb 64.9003 6.68855
rfemur 10.3259 -0.496423 20.0225
rtibia 1.43125e-014
rfoot -17.8817 -10.6776
rtoes -14.9395
lfemur -5.72627 -4.09403 -7.95653
ltibia 27.9185
lfoot -23.9941 8.52882
ltoes -57.9821
452
root -0.741341 18.5765 6.91387 2.06765 0.165923 -6.0461
lowerback 4.91973 1.14442 1.31648
upperback -2.78566 1.6542 0.505215
thorax -5.62894 0.778715 -0.374246
lowerneck -9.20683 -7.87232 -6.20017
upperneck 9.49321 -10.7791 8.50417
head 5.16398 -5.0139 2.80791
rclavicle 1.30949e-014 -3.97569e-015
rhumerus -37.3545 10.0657 -90.7299
rradius 120.143
rwrist 17.4629
rhand 13.5503 -50.6895
rfingers 7.12502
rthumb 38.4853 -436.355
lclavicle 1.30949e-014 -3.97569e-015
lhumerus -28.9567 -19.643 98.6281
lradius 120.897
lwrist -23.2689
lhand 43.3031 -0.595196
lfingers 7.12502
lthumb 65.0702 6.46434
rfemur 10.4033 -0.522995 20.0196
rtibia -3.02153e-014
rfoot -17.838 -10.6966
rtoes -14.9566
lfemur -5.68327 -4.04294 -7.96893
ltibia 27.9513
lfoot -23.9797 8.59915
ltoes -58.1027
453
root -0.738535 18.5766 6.92468 2.00294 0.187854 -6.08851
lowerback 4.9314 1.12672 1.3907
upperback -2.74819 1.63708 0.532727
thorax -5.59537 0.768387 -0.385416
lowerneck -7.71395 -9.52008 -7.80277
upperneck 8.20195 -12.917 9.46462
head 4.84673 -6.12475 3.22508
rclavicle 5.24295e-015 8.74653e-015
rhumerus -37.2683 10.0911 -90.6078
rradius 120.059
rwrist 17.4361
rhand 13.8357 -50.884
rfingers 7.12502
rthumb 38.7546 -436.474
lclavicle 5.24295e-015 8.74653e-015
lhumerus -28.8992 -19.5891 98.6554
lradius 121.013
lwrist -23.2164
lhand 43.4459 -0.461435
lfingers 7.12502
lthumb 65.1827 6.40836
rfemur 10.5065 -0.539763 20.0489
rtibia -2.54444e-014
rfoot -17.798 -10.6967
rtoes -14.8917
lfemur -5.59719 -4.00572 -7.94457
ltibia 27.9763
lfoot -23.9934 8.61833
ltoes -58.1755
454
root -0.736306 18.577 6.93344 1.97215 0.252924 -6.10327
lowerback 4.96041 1.07082 1.41491
upperback -2.73625 1.56576 0.556555
thorax -5.60058 0.732664 -0.3679
lowerneck -6.23659 -11.109 -9.37662
upperneck 7.01231 -15.0374 10.5085
head 4.62404 -7.22338 3.65942
rclavicle -8.97016e-015 0
rhumerus -37.2462 9.88568 -90.6325
rradius 119.976
rwrist 17.5485
rhand 14.3349 -50.8454
rfingers 7.12502
rthumb 39.2252 -436.301
lclavicle -8.97016e-015 0
lhumerus -28.9026 -19.5029 98.6578
lradius 121.13
lwrist -23.1205
lhand 43.4833 -0.318544
lfingers 7.12502
lthumb 65.2121 6.50126
rfemur 10.5777 -0.600832 20.0543
rtibia -2.22639e-014
rfoot -17.7521 -10.6958
rtoes -14.8601
lfemur -5.56454 -3.98598 -7.9324
ltibia 27.9976
lfoot -24.014 8.55163
ltoes -58.156
455
root -0.733959 18.5778 6.93921 1.95738 0.329782 -6.11788
lowerback 4.881 0.962612 1.3686
upperback -2.64508 1.41824 0.625249
thorax -5.46458 0.664189 -0.254032
lowerneck -4.95756 -12.5447 -10.578
upperneck 5.9253 -16.9761 11.2299
head 4.44095 -8.2323 3.94192
rclavicle -6.36111e-015 -7.95139e-016
rhumerus -37.3012 9.31108 -90.9237
rradius 119.942
rwrist 17.9282
rhand 14.9399 -50.3943
rfingers 7.12502
rthumb 39.7951 -435.682
lclavicle -6.36111e-015 -7.95139e-016
lhumerus -28.777 -19.3017 98.625
lradius 121.223
lwrist -23.0697
lhand 43.3169 -0.333783
lfingers 7.12502
lthumb 65.0811 6.70753
rfemur 10.624 -0.673751 20.0611
rtibia 3.33958e-014
rfoot -17.7246 -10.6874
rtoes -14.6348
lfemur -5.55949 -4.00756 -7.9172
ltibia 28.0075
lfoot -24.0395 8.48685
ltoes -58.0792
456
root -0.730247 18.5787 6.94455 1.92985 0.35718 -6.11392
lowerback 4.52863 0.807071 1.16445
upperback -2.35653 1.19249 0.778482
thorax -4.97184 0.566492 0.0482087
lowerneck -3.96541 -13.7697 -11.4719
upperneck 4.88959 -18.6262 11.7154
head 4.27159 -9.09161 4.11799
rclavicle 9.06955e-016 -4.77083e-015
rhumerus -36.2332 10.521 -90.3463
rradius 119.747
rwrist 17.401
rhand 14.5537 -51.08
rfingers 7.12502
rthumb 39.4314 -436.475
lclavicle 9.06955e-016 -4.77083e-015
lhumerus -28.2838 -18.9416 98.5348
lradius 121.242
lwrist -23.075
lhand 43.2121 -0.314225
lfingers 7.12502
lthumb 64.9984 6.86533
rfemur 10.6728 -0.696743 20.0379
rtibia 1.59028e-015
rfoot -17.7062 -10.6741
rtoes -14.4033
lfemur -5.519 -4.04828 -7.94344
ltibia 27.9981
lfoot -24.063 8.50811
ltoes -58.0312
457
root -0.728129 18.5797 6.95027 1.93644 0.343502 -6.07146
lowerback 4.9848 0.759787 1.35933
upperback -2.70477 1.14796 0.599453
thorax -5.58968 0.529125 -0.252058
lowerneck -2.73918 -14.8535 -12.3481
upperneck 4.62285 -20.2036 12.1912
head 4.30867 -9.91453 4.28267
rclavicle 2.6339e-015 0
rhumerus -36.5408 10.5856 -90.5072
rradius 119.783
rwrist 17.3363
rhand 14.0408 -51.4028
rfingers 7.12502
rthumb 38.948 -436.938
lclavicle 2.6339e-015 0
lhumerus -28.8754 -19.0339 98.5611
lradius 121.346
lwrist -23.1007
lhand 43.4679 -0.078377
lfingers 7.12502
lthumb 65.1999 6.76208
rfemur 10.6827 -0.680565 19.9808
rtibia 0
rfoot -17.6775 -10.712
rtoes -14.5732
lfemur -5.49046 -4.0418 -8.00465
ltibia 27.9705
lfoot -24.0698 8.54881
ltoes -58.0642
